<?xml version="1.0" standalone="no"?>
<svg version="1.0" xmlns="http://www.w3.org/2000/svg" width="96.000000pt" height="96.000000pt" viewBox="0 0 96.000000 96.000000" preserveAspectRatio="xMidYMid meet">
    <g transform="translate(0.000000,96.000000) scale(0.100000,-0.100000)" fill="#0000FF" stroke="none">
        <path d="M385 896 c-114 -54 -168 -171 -133 -288 14 -48 77 -121 118 -138 l31
-13 -69 -33 c-126 -61 -201 -172 -210 -311 -4 -68 -3 -73 15 -73 18 0 21 8 25
73 8 122 76 224 185 278 69 34 197 34 266 0 109 -54 177 -156 185 -278 4 -65
7 -73 25 -73 18 0 19 5 15 73 -9 139 -84 250 -210 311 l-69 33 31 13 c17 7 48
32 69 56 65 74 78 163 37 249 -59 125 -193 177 -311 121z m205 -50 c60 -39 85
-89 85 -168 0 -58 -4 -72 -30 -109 -109 -154 -342 -94 -362 93 -5 46 -1 65 17
102 23 49 70 91 117 106 47 16 131 4 173 -24z" />
    </g>
</svg>
